<svg width="28" height="32" viewBox="0 0 28 32" fill="none" xmlns="http://www.w3.org/2000/svg">
<path d="M12.9848 0.801151C13.2013 -0.267365 14.7284 -0.267365 14.9449 0.801152L16.74 9.65919C16.8594 10.2485 17.4681 10.5999 18.0381 10.4087L26.6069 7.53423C27.6406 7.18749 28.4041 8.50999 27.587 9.23177L20.8133 15.2154C20.3627 15.6134 20.3627 16.3163 20.8133 16.7143L27.587 22.6979C28.4041 23.4197 27.6406 24.7422 26.6069 24.3955L18.0381 21.521C17.4681 21.3298 16.8594 21.6812 16.74 22.2705L14.9449 31.1285C14.7284 32.1971 13.2013 32.1971 12.9848 31.1285L11.1897 22.2705C11.0703 21.6812 10.4616 21.3298 9.89157 21.521L1.32274 24.3955C0.289111 24.7422 -0.474432 23.4197 0.342662 22.6979L7.11641 16.7143C7.56702 16.3163 7.56702 15.6134 7.11641 15.2154L0.342662 9.23177C-0.474433 8.50999 0.289111 7.18749 1.32274 7.53423L9.89157 10.4087C10.4616 10.5999 11.0703 10.2485 11.1897 9.65919L12.9848 0.801151Z" fill="#B48CF6" style="fill:#B48CF6;fill:color(display-p3 0.7059 0.5490 0.9647);fill-opacity:1;"/>
</svg>
